<svg width="123" height="39" viewBox="0 0 123 39" fill="none" xmlns="http://www.w3.org/2000/svg">
<path fill-rule="evenodd" clip-rule="evenodd" d="M13.6768 30.7164L13.3513 30.7739C12.9806 30.8398 12.7049 30.89 12.5329 30.9223C12.2352 30.9785 11.9246 31.0225 11.6024 31.052C11.2656 31.0836 10.953 31.0995 10.6643 31.0995H9.70719V28.1617L10.6045 28.1052C11.4879 28.0489 12.3283 27.9096 13.1247 27.6872C13.917 27.4658 14.6678 27.1619 15.3777 26.7765C16.0904 26.3886 16.735 25.9425 17.3103 25.4396C17.8814 24.9409 18.3866 24.3823 18.8259 23.7644C19.2588 23.1554 19.6146 22.4983 19.8929 21.7939C20.1715 21.0887 20.3696 20.3417 20.4857 19.5517C20.7188 17.9766 20.5309 16.3297 19.9213 14.613C19.6496 13.8961 19.2998 13.221 18.8728 12.5894C18.4423 11.952 17.9341 11.3608 17.35 10.8182C16.7605 10.2696 16.1385 9.8114 15.485 9.44195C14.8569 9.08798 14.1892 8.8085 13.4823 8.60432C13.4034 8.59428 13.3151 8.57851 13.2166 8.55529C13.0898 8.52621 12.945 8.487 12.7838 8.43909C12.6451 8.39683 12.5406 8.36779 12.4718 8.35252C12.4588 8.34959 12.4677 8.34718 12.4731 8.34614L12.4699 8.34486C12.4053 8.34486 12.3199 8.33698 12.2151 8.32213H12.2114C12.1231 8.30916 12.0413 8.29561 11.9672 8.28076C10.4283 7.98244 5.02777 8.25471 3.08847 8.25471V39H0V5.16621H11.2057C11.8432 5.16621 12.4867 5.22675 13.1367 5.3483C13.7752 5.46817 14.4103 5.64646 15.0413 5.88433C15.6576 6.11612 16.2452 6.38536 16.8032 6.6908C17.3649 6.99791 17.8873 7.33723 18.3705 7.70668C19.1017 8.24391 19.7565 8.83806 20.3345 9.48868V9.49302C20.9188 10.1505 21.4269 10.8669 21.8592 11.642C22.2916 12.4165 22.6403 13.2051 22.9047 14.0068C23.1727 14.8187 23.3596 15.6514 23.4652 16.5041C23.57 17.3516 23.592 18.2049 23.5309 19.0634C23.4704 19.9145 23.3269 20.7691 23.1004 21.6264C22.8702 22.4977 22.5512 23.3237 22.1451 24.1043C21.7382 24.8858 21.2408 25.6284 20.6525 26.3311C20.3192 26.7403 19.9586 27.1297 19.569 27.4979C19.1753 27.8709 18.769 28.2067 18.351 28.5044C17.9418 28.7956 17.5142 29.0749 17.0682 29.341C16.9318 29.4224 16.7937 29.5029 16.6525 29.5831L23.7278 39H19.9902L13.6768 30.7164ZM12.4731 8.34614C12.476 8.34551 12.4783 8.34614 12.4731 8.34614V8.34614ZM48.8687 5.94255V7.89285H29.9965V18.3946H37.8071V21.4826H29.9965V36.0019H48.3267V39H26.9988C26.9972 27.6623 26.9972 16.3238 26.9988 4.98541H48.8687V5.94255ZM52.6456 4.9849L70.8827 13.3788V4.89526H73.7902V39H70.8827V16.7132L53.2931 8.70647V39H50.2049V4.89526H52.4504L52.6456 4.9849ZM99.6148 5.94255V7.89285H80.7432V18.3946H88.5534V21.4826H80.7432V36.0019H99.0727V39H77.7449V4.98541H99.6148V5.94255ZM122.821 5.94255V7.89285H103.949V18.3946H111.76V21.4826H103.949V36.0019H122.279V39H100.952V4.98541H122.821V5.94255Z" fill="black"/>
<path fill-rule="evenodd" clip-rule="evenodd" d="M87.4633 -0.000113726H89.8158L86.6527 3.51562H84.957L87.2034 -0.000113726H87.4633Z" fill="black"/>
</svg>
